HIERARCHY
ROOT hips
{
  OFFSET 0 10.6860622 2.3727825e-15
  CHANNELS 6 Xposition Yposition Zposition Yrotation Xrotation Zrotation
  JOINT leftUpperLeg
  {
    OFFSET 0.6642549969 -0.9402397400000004 0
    CHANNELS 3 Yrotation Xrotation Zrotation
    JOINT leftLowerLeg
    {
      OFFSET 0 -3.997221335632195 0
      CHANNELS 3 Yrotation Xrotation Zrotation
      JOINT leftFoot
      {
        OFFSET -0.13777839790000004 -4.6145792000000005 -0.22186036399999998
        CHANNELS 3 Yrotation Xrotation Zrotation
        JOINT leftToes
        {
          OFFSET -0.03777410834999995 -0.9130806927000008 0.85230013
          CHANNELS 3 Yrotation Xrotation Zrotation
          End Site
          {
            OFFSET -0.03777410834999995 -0.9130806927000008 0.85230013
          }
        }
      }
    }
  }
  JOINT rightUpperLeg
  {
    OFFSET -0.6642778626 -0.9402397400000004 0
    CHANNELS 3 Yrotation Xrotation Zrotation
    JOINT rightLowerLeg
    {
      OFFSET 0 -3.997221452859387 0
      CHANNELS 3 Yrotation Xrotation Zrotation
      JOINT rightFoot
      {
        OFFSET 0.1377926176 -4.6145792000000005 -0.22185782299999995
        CHANNELS 3 Yrotation Xrotation Zrotation
        JOINT rightToes
        {
          OFFSET 0.037780746850000047 -0.9130806927000008 0.85230167
          CHANNELS 3 Yrotation Xrotation Zrotation
          End Site
          {
            OFFSET 0.037780746850000047 -0.9130806927000008 0.85230167
          }
        }
      }
    }
  }
  JOINT spine
  {
    OFFSET 0 0.13988381660000015 0
    CHANNELS 3 Yrotation Xrotation Zrotation
    JOINT chest
    {
      OFFSET 0 0.6191039003973773 0
      CHANNELS 3 Yrotation Xrotation Zrotation
      JOINT upperChest
      {
        OFFSET 0 0.9855186130586943 0
        CHANNELS 3 Yrotation Xrotation Zrotation
        JOINT leftShoulder
        {
          OFFSET 0.1807663869 1.5087829790000005 0
          CHANNELS 3 Yrotation Xrotation Zrotation
          JOINT leftUpperArm
          {
            OFFSET 0.5985063006419806 0 0
            CHANNELS 3 Yrotation Xrotation Zrotation
            JOINT leftLowerArm
            {
              OFFSET 2.2993332369501065 0 0
              CHANNELS 3 Yrotation Xrotation Zrotation
              JOINT leftHand
              {
                OFFSET 2.395047042602395 0 0
                CHANNELS 3 Yrotation Xrotation Zrotation
                JOINT leftIndexProximal
                {
                  OFFSET 0.5766295810000004 0.04556643899499946 0.17265095988184
                  CHANNELS 3 Yrotation Xrotation Zrotation
                  JOINT leftIndexIntermediate
                  {
                    OFFSET 0.2957229000000008 -0.019352197700001517 -0.007932640616999987
                    CHANNELS 3 Yrotation Xrotation Zrotation
                    JOINT leftIndexDistal
                    {
                      OFFSET 0.19008243099999922 -0.012484908149998475 -0.002786250786000012
                      CHANNELS 3 Yrotation Xrotation Zrotation
                      End Site
                      {
                        OFFSET 0.19008243099999922 -0.012484908149998475 -0.002786250786000012
                      }
                    }
                  }
                }
                JOINT leftMiddleProximal
                {
                  OFFSET 0.5834975091000001 0.0524350405149987 0.02204081888183999
                  CHANNELS 3 Yrotation Xrotation Zrotation
                  JOINT leftMiddleIntermediate
                  {
                    OFFSET 0.33880573540000003 -0.019871473270000717 -0.00000971183179999946
                    CHANNELS 3 Yrotation Xrotation Zrotation
                    JOINT leftMiddleDistal
                    {
                      OFFSET 0.20676022730000088 -0.012221336379999448 0.0001471936708000235
                      CHANNELS 3 Yrotation Xrotation Zrotation
                      End Site
                      {
                        OFFSET 0.20676022730000088 -0.012221336379999448 0.0001471936708000235
                      }
                    }
                  }
                }
                JOINT leftLittleProximal
                {
                  OFFSET 0.5344154683999995 -0.012880921405001189 -0.24414037221816004
                  CHANNELS 3 Yrotation Xrotation Zrotation
                  JOINT leftLittleIntermediate
                  {
                    OFFSET 0.21758961730000093 -0.011650919939999227 0.011893592810000034
                    CHANNELS 3 Yrotation Xrotation Zrotation
                    JOINT leftLittleDistal
                    {
                      OFFSET 0.1475273964999999 -0.008152365682999818 0.006001092492999946
                      CHANNELS 3 Yrotation Xrotation Zrotation
                      End Site
                      {
                        OFFSET 0.1475273964999999 -0.008152365682999818 0.006001092492999946
                      }
                    }
                  }
                }
                JOINT leftRingProximal
                {
                  OFFSET 0.5799399463000003 0.026911854694997794 -0.12150566991816003
                  CHANNELS 3 Yrotation Xrotation Zrotation
                  JOINT leftRingIntermediate
                  {
                    OFFSET 0.26167887460000006 -0.013480186499999602 0.010996293000000053
                    CHANNELS 3 Yrotation Xrotation Zrotation
                    JOINT leftRingDistal
                    {
                      OFFSET 0.17667108799999987 -0.008990287899999228 0.0055541023999999065
                      CHANNELS 3 Yrotation Xrotation Zrotation
                      End Site
                      {
                        OFFSET 0.17667108799999987 -0.008990287899999228 0.0055541023999999065
                      }
                    }
                  }
                }
                JOINT leftThumbProximal
                {
                  OFFSET 0.11018806699999972 -0.09448718900500053 0.17047963138184
                  CHANNELS 3 Yrotation Xrotation Zrotation
                  JOINT leftThumbIntermediate
                  {
                    OFFSET 0.31062601459999983 -0.08126270900000132 0.15443142000000007
                    CHANNELS 3 Yrotation Xrotation Zrotation
                    JOINT leftThumbDistal
                    {
                      OFFSET 0.21627175790000086 -0.08833193599999878 0.018771167799999988
                      CHANNELS 3 Yrotation Xrotation Zrotation
                      End Site
                      {
                        OFFSET 0.21627175790000086 -0.08833193599999878 0.018771167799999988
                      }
                    }
                  }
                }
              }
            }
          }
        }
        JOINT neck
        {
          OFFSET 0 1.5463305265074576 0
          CHANNELS 3 Yrotation Xrotation Zrotation
          JOINT head
          {
            OFFSET 0 0.8456443600000344 0
            CHANNELS 3 Yrotation Xrotation Zrotation
            JOINT leftEye
            {
              OFFSET 0.30408573140000006 0.5104519199999995 0.1276382305
              CHANNELS 3 Yrotation Xrotation Zrotation
              End Site
              {
                OFFSET 0.30408573140000006 0.5104519199999995 0.1276382305
              }
            }
            JOINT rightEye
            {
              OFFSET -0.30409491089999996 0.5104519199999995 0.1276379445
              CHANNELS 3 Yrotation Xrotation Zrotation
              End Site
              {
                OFFSET -0.30409491089999996 0.5104519199999995 0.1276379445
              }
            }
            JOINT jaw
            {
              OFFSET -3.155239131000001e-7 -0.11984121820000082 0.60178107
              CHANNELS 3 Yrotation Xrotation Zrotation
              End Site
              {
                OFFSET -3.155239131000001e-7 -0.11984121820000082 0.60178107
              }
            }
          }
        }
        JOINT rightShoulder
        {
          OFFSET -0.1807303465 1.5087829790000005 0
          CHANNELS 3 Yrotation Xrotation Zrotation
          JOINT rightUpperArm
          {
            OFFSET -0.5985063796536958 0 0
            CHANNELS 3 Yrotation Xrotation Zrotation
            JOINT rightLowerArm
            {
              OFFSET -2.2993322059002854 0 0
              CHANNELS 3 Yrotation Xrotation Zrotation
              JOINT rightHand
              {
                OFFSET -2.395045314457259 0 0
                CHANNELS 3 Yrotation Xrotation Zrotation
                JOINT rightIndexProximal
                {
                  OFFSET -0.5764487688300002 0.0441371204405987 0.17361932004999997
                  CHANNELS 3 Yrotation Xrotation Zrotation
                  JOINT rightIndexIntermediate
                  {
                    OFFSET -0.29573011380000047 -0.01934826376999843 -0.007698921482999974
                    CHANNELS 3 Yrotation Xrotation Zrotation
                    JOINT rightIndexDistal
                    {
                      OFFSET -0.19008373999999884 -0.012503266380000655 -0.0026365778999999897
                      CHANNELS 3 Yrotation Xrotation Zrotation
                      End Site
                      {
                        OFFSET -0.19008373999999884 -0.012503266380000655 -0.0026365778999999897
                      }
                    }
                  }
                }
                JOINT rightMiddleProximal
                {
                  OFFSET -0.5834852037300005 0.05211639405060153 0.02307162440000001
                  CHANNELS 3 Yrotation Xrotation Zrotation
                  JOINT rightMiddleIntermediate
                  {
                    OFFSET -0.33880114510000003 -0.019952774050000954 0.0002455003561999819
                    CHANNELS 3 Yrotation Xrotation Zrotation
                    JOINT rightMiddleDistal
                    {
                      OFFSET -0.20675694929999955 -0.012273788999999091 0.00030209124000002766
                      CHANNELS 3 Yrotation Xrotation Zrotation
                      End Site
                      {
                        OFFSET -0.20675694929999955 -0.012273788999999091 0.00030209124000002766
                      }
                    }
                  }
                }
                JOINT rightLittleProximal
                {
                  OFFSET -0.5346811737299992 -0.011214256288399227 -0.24363941305000003
                  CHANNELS 3 Yrotation Xrotation Zrotation
                  JOINT rightLittleIntermediate
                  {
                    OFFSET -0.21757715980000092 -0.011771559690000988 0.01201554387
                    CHANNELS 3 Yrotation Xrotation Zrotation
                    JOINT rightLittleDistal
                    {
                      OFFSET -0.1475201849000004 -0.00822055339600003 0.006082065407000015
                      CHANNELS 3 Yrotation Xrotation Zrotation
                      End Site
                      {
                        OFFSET -0.1475201849000004 -0.00822055339600003 0.006082065407000015
                      }
                    }
                  }
                }
                JOINT rightRingProximal
                {
                  OFFSET -0.5800810755299999 0.027657985680600072 -0.12066365025000003
                  CHANNELS 3 Yrotation Xrotation Zrotation
                  JOINT rightRingIntermediate
                  {
                    OFFSET -0.26166445029999974 -0.013623118409999302 0.011164098990000045
                    CHANNELS 3 Yrotation Xrotation Zrotation
                    JOINT rightRingDistal
                    {
                      OFFSET -0.17666387530000027 -0.009072900100000503 0.005668185599999959
                      CHANNELS 3 Yrotation Xrotation Zrotation
                      End Site
                      {
                        OFFSET -0.17666387530000027 -0.009072900100000503 0.005668185599999959
                      }
                    }
                  }
                }
                JOINT rightThumbProximal
                {
                  OFFSET -0.10997596379000074 -0.09577489355940072 0.16989765924999997
                  CHANNELS 3 Yrotation Xrotation Zrotation
                  JOINT rightThumbIntermediate
                  {
                    OFFSET -0.31036620999999986 -0.08229339117999834 0.15440884469999996
                    CHANNELS 3 Yrotation Xrotation Zrotation
                    JOINT rightThumbDistal
                    {
                      OFFSET -0.21631306399999906 -0.08825326400000111 0.018656797720000014
                      CHANNELS 3 Yrotation Xrotation Zrotation
                      End Site
                      {
                        OFFSET -0.21631306399999906 -0.08825326400000111 0.018656797720000014
                      }
                    }
                  }
                }
              }
            }
          }
        }
      }
    }
  }
}
MOTION
Frames: 5
Frame Time: 0.03333333333333333
5.366740723532839 -0.8231072963873759 7.621587396379294 -179.99999613527856 75.00404836827043 -179.9999952668952 179.54204610115497 -75.92894497959378 -178.26280405025258 0.4326728368979113 -2.136082788266867 0.1377937534952327 5.206801263416081 -2.099905027287526 2.630534828811509 0 0 0 172.95937231559182 -76.75023737294663 -173.94320053080102 -0.3364270249111636 -3.933522839542106 -1.0791458614712406 -7.039162358768382 -1.1178009489097889 -2.305296733692475 0 0 0 -1.051688929630567 2.9071625506667056 -1.507575060612199 -3.3534516622974073 8.903771057880641 -0.5174536024489194 0 0 0 -33.279741718745036 33.30997687999055 -66.36730897834995 -47.72121787291687 41.06441365206355 -50.10494417008363 -43.34847057066417 8.56583352076092 17.041497083093446 2.2111214942818505 -8.639288735787456 37.12961403545336 0 0 0 0 0 0 0 0 0 0 0 0 0 0 0 0 0 0 0 0 0 0 0 0 0 0 0 0 0 0 0 0 0 0 0 0 0 0 0 0 0 0 0 0 0 0 -6.239553308271847 0 0 -14.578217765612198 0 0 0 0 0 0 0 0 0 0 32.609804531115415 36.44655514850156 67.06474785989946 47.22898381388921 41.63938536909645 50.47623723226606 36.60892287126198 7.634335158539821 -19.206624519190218 -5.035451826278466 -7.095938900827054 -35.04295596974997 0 0 0 0 0 0 0 0 0 0 0 0 0 0 0 0 0 0 0 0 0 0 0 0 0 0 0 0 0 0 0 0 0 0 0 0 0 0 0 0 0 0 0 0 0
5.366740723532839 -0.8231072963873759 7.627996603818084 -179.99999613527856 75.00404836827043 -179.9999952668952 179.54204610115497 -75.92894497959378 -178.26280405025258 0.4326728368979113 -2.136082788266867 0.1377937534952327 5.206801263416081 -2.099905027287526 2.630534828811509 0 0 0 172.95937231559182 -76.75023737294663 -173.94320053080102 -0.3364270249111636 -3.933522839542106 -1.0791458614712406 -7.039162358768382 -1.1178009489097889 -2.305296733692475 0 0 0 -1.051852831722652 3.1071927448181667 -1.5112996489973567 -3.360598183743213 9.656710670356649 -0.5621738733378927 0 0 0 -33.03002816276845 32.691796347191925 -66.24157788256969 -47.625635574297334 41.106388099773255 -49.887793229687546 -42.61079116049043 8.342689323827784 16.894511626796103 1.6056982053289868 -8.392775543367424 37.51559773305754 0 0 0 0 0 0 0 0 0 0 0 0 0 0 0 0 0 0 0 0 0 0 0 0 0 0 0 0 0 0 0 0 0 0 0 0 0 0 0 0 0 0 0 0 0 0 -7.028788546478713 0 0 -15.28404442321656 0 0 0 0 0 0 0 0 0 0 32.382375474883744 35.655246834895514 67.06124116150545 47.09261682401986 41.70933910840536 50.212753771172814 35.71306529417367 7.328732313129987 -18.919889324132274 -4.28088490673407 -6.954816481610746 -35.536223612064084 0 0 0 0 0 0 0 0 0 0 0 0 0 0 0 0 0 0 0 0 0 0 0 0 0 0 0 0 0 0 0 0 0 0 0 0 0 0 0 0 0 0 0 0 0
5.366740723532839 -0.8231072963873759 7.6344058112568725 -179.99999613527856 75.00404836827043 -179.9999952668952 179.54204610115497 -75.92894497959378 -178.26280405025258 0.4326728368979113 -2.136082788266867 0.1377937534952327 5.206801263416081 -2.099905027287526 2.630534828811509 0 0 0 172.95937231559182 -76.75023737294663 -173.94320053080102 -0.3364270249111636 -3.933522839542106 -1.0791458614712406 -7.039162358768382 -1.1178009489097889 -2.305296733692475 0 0 0 -1.0520284748031474 3.307220660849099 -1.515025443609858 -3.368356562425873 10.409512264780517 -0.6070867314399944 0 0 0 -32.78364863685491 32.07324846301225 -66.11988824790839 -47.52977163425509 41.14808553335533 -49.67040336479427 -41.87309374457454 8.121478408011281 16.744747780930123 1.0024408962562728 -8.142290079360526 37.89862525145633 0 0 0 0 0 0 0 0 0 0 0 0 0 0 0 0 0 0 0 0 0 0 0 0 0 0 0 0 0 0 0 0 0 0 0 0 0 0 0 0 0 0 0 0 0 0 -7.818170415446015 0 0 -15.989976404717607 0 0 0 0 0 0 0 0 0 0 32.157243413678465 34.86410642705532 67.06158537589322 46.95570397314389 41.77881949971141 49.948788194804585 34.81656418030707 7.027711098984912 -18.628660597318113 -3.527971438209182 -6.807300111427022 -36.027318260457825 0 0 0 0 0 0 0 0 0 0 0 0 0 0 0 0 0 0 0 0 0 0 0 0 0 0 0 0 0 0 0 0 0 0 0 0 0 0 0 0 0 0 0 0 0
5.366740723532839 -0.8231072963873759 7.640815555480204 -179.99999613527856 75.00404836827043 -179.9999952668952 179.54204610115497 -75.92894497959378 -178.26280405025258 0.4326728368979113 -2.136082788266867 0.1377937534952327 5.206801263416081 -2.099905027287526 2.630534828811509 0 0 0 172.95937231559182 -76.75023737294663 -173.94320053080102 -0.3364270249111636 -3.933522839542106 -1.0791458614712406 -7.039162358768382 -1.1178009489097889 -2.305296733692475 0 0 0 -1.0522180730605508 3.5072457423124233 -1.5187525075237929 -3.376734808756552 11.162115597015251 -0.6522047996344076 0 0 0 -32.54051227926659 31.45438542904355 -66.00216635134728 -47.43364610408428 41.18951452254502 -49.452791868206596 -41.13542496194689 7.902256302304764 16.592247845398816 0.40139846836817955 -7.88789459506994 38.278655348917304 0 0 0 0 0 0 0 0 0 0 0 0 0 0 0 0 0 0 0 0 0 0 0 0 0 0 0 0 0 0 0 0 0 0 0 0 0 0 0 0 0 0 0 0 0 0 -8.60762805680525 0 0 -16.69596744686848 0 0 0 0 0 0 0 0 0 0 31.9342959255588 34.07321539227512 67.06566805893993 46.818199743800236 41.84782969073534 49.68430567818104 33.91953024205825 6.731390818467616 -18.33305472732947 -2.7768442336769423 -6.653450638731034 -36.51610971063588 0 0 0 0 0 0 0 0 0 0 0 0 0 0 0 0 0 0 0 0 0 0 0 0 0 0 0 0 0 0 0 0 0 0 0 0 0 0 0 0 0 0 0 0 0
5.366740723532839 -0.8231072963873759 7.647224762918994 -179.99999613527856 75.00404836827043 -179.9999952668952 179.54204610115497 -75.92894497959378 -178.26280405025258 0.4326728368979113 -2.136082788266867 0.1377937534952327 5.206801263416081 -2.099905027287526 2.630534828811509 0 0 0 172.95937231559182 -76.75023737294663 -173.94320053080102 -0.3364270249111636 -3.933522839542106 -1.0791458614712406 -7.039162358768382 -1.1178009489097889 -2.305296733692475 0 0 0 -1.052420635710374 3.7072637954655705 -1.5224808382508792 -3.385736234545001 11.914447101333982 -0.6975391642622353 0 0 0 -32.30051625003194 30.83526133380109 -65.88832126600653 -47.337265133588616 41.23066549737847 -49.23496638963081 -40.39785564849306 7.6850837868601936 16.43705404867408 -0.19737434585394606 -7.629651702996784 38.655612593946195 0 0 0 0 0 0 0 0 0 0 0 0 0 0 0 0 0 0 0 0 0 0 0 0 0 0 0 0 0 0 0 0 0 0 0 0 0 0 0 0 0 0 0 0 0 0 -9.397082952746292 0 0 -17.401954196253087 0 0 0 0 0 0 0 0 0 0 31.713424975136103 33.28266732151424 67.07340917468471 46.680100135030514 41.91635908064007 49.41930905626664 33.022064427956174 6.439885785340716 -18.033175304745374 -2.027642477776723 -6.493330541694488 -37.00244708424394 0 0 0 0 0 0 0 0 0 0 0 0 0 0 0 0 0 0 0 0 0 0 0 0 0 0 0 0 0 0 0 0 0 0 0 0 0 0 0 0 0 0 0 0 0
